<svg width="7" height="12" viewBox="0 0 7 12" fill="none" xmlns="http://www.w3.org/2000/svg">
<path d="M5.55 4.41L2.10751 0.967499C1.96698 0.827811 1.77689 0.749405 1.57875 0.749405C1.38061 0.749405 1.19053 0.827811 1.05 0.967499C0.979708 1.03722 0.923912 1.12017 0.885836 1.21157C0.847759 1.30296 0.828156 1.40099 0.828156 1.5C0.828156 1.59901 0.847759 1.69704 0.885836 1.78843C0.923912 1.87983 0.979708 1.96278 1.05 2.0325L4.50001 5.4675C4.5703 5.53723 4.6261 5.62018 4.66417 5.71157C4.70225 5.80297 4.72185 5.90099 4.72185 6C4.72185 6.09901 4.70225 6.19704 4.66417 6.28844C4.6261 6.37983 4.5703 6.46278 4.50001 6.5325L1.05 9.96751C0.908776 10.1077 0.82904 10.2983 0.828337 10.4974C0.827634 10.6964 0.906022 10.8875 1.04625 11.0288C1.18649 11.17 1.37708 11.2497 1.5761 11.2504C1.77513 11.2511 1.96628 11.1727 2.10751 11.0325L5.55 7.59C5.97136 7.16813 6.20803 6.59626 6.20803 6C6.20803 5.40375 5.97136 4.83188 5.55 4.41Z" fill="#040415"/>
</svg>
