<svg width="12" height="12" viewBox="0 0 12 12" fill="none" xmlns="http://www.w3.org/2000/svg">
<path d="M1.76849 7.26946H5.57618V11.0772H3.88387C3.32284 11.0772 2.78478 10.8543 2.38807 10.4576C1.99136 10.0609 1.76849 9.52281 1.76849 8.96177V7.26946ZM11.0762 5.57716C11.0762 5.80157 10.987 6.01679 10.8283 6.17548C10.6697 6.33416 10.4544 6.42331 10.23 6.42331H6.42233V4.71281C6.28018 4.72381 6.13845 4.731 5.99926 4.731C5.86006 4.731 5.71833 4.72381 5.57618 4.71281V6.42331H1.76849C1.54407 6.42331 1.32885 6.33416 1.17017 6.17548C1.01148 6.01679 0.922333 5.80157 0.922333 5.57716C0.922333 5.12833 1.10063 4.69788 1.418 4.38051C1.73537 4.06314 2.16581 3.88485 2.61464 3.88485H3.34995C3.11074 3.67398 2.92086 3.41307 2.79379 3.1206C2.66671 2.82814 2.60555 2.51129 2.61464 2.19254C2.61464 2.08033 2.65921 1.97272 2.73856 1.89338C2.8179 1.81404 2.92551 1.76946 3.03772 1.76946C3.14992 1.76946 3.25754 1.81404 3.33688 1.89338C3.41622 1.97272 3.46079 2.08033 3.46079 2.19254C3.46079 3.30185 4.46391 3.686 5.22672 3.81758C4.94517 3.31837 4.77568 2.76385 4.73002 2.19254C4.73002 1.85592 4.86375 1.53309 5.10177 1.29506C5.3398 1.05703 5.66263 0.923309 5.99926 0.923309C6.33588 0.923309 6.65871 1.05703 6.89674 1.29506C7.13476 1.53309 7.26849 1.85592 7.26849 2.19254C7.22283 2.76385 7.05334 3.31837 6.77179 3.81758C7.5346 3.686 8.53772 3.30185 8.53772 2.19254C8.53772 2.08033 8.58229 1.97272 8.66163 1.89338C8.74098 1.81404 8.84859 1.76946 8.96079 1.76946C9.073 1.76946 9.18061 1.81404 9.25995 1.89338C9.3393 1.97272 9.38387 2.08033 9.38387 2.19254C9.39296 2.51129 9.3318 2.82814 9.20473 3.1206C9.07765 3.41307 8.88777 3.67398 8.64856 3.88485H9.38387C9.8327 3.88485 10.2631 4.06314 10.5805 4.38051C10.8979 4.69788 11.0762 5.12833 11.0762 5.57716ZM5.57618 2.19254C5.62725 2.6422 5.77133 3.07631 5.99926 3.46727C6.22718 3.07631 6.37126 2.6422 6.42233 2.19254C6.42233 2.08033 6.37776 1.97272 6.29842 1.89338C6.21907 1.81404 6.11146 1.76946 5.99926 1.76946C5.88705 1.76946 5.77944 1.81404 5.7001 1.89338C5.62075 1.97272 5.57618 2.08033 5.57618 2.19254ZM6.42233 11.0772H8.11464C8.39244 11.0772 8.66751 11.0224 8.92416 10.9161C9.18081 10.8098 9.41401 10.654 9.61044 10.4576C9.80687 10.2611 9.96269 10.0279 10.069 9.77129C10.1753 9.51464 10.23 9.23957 10.23 8.96177V7.26946H6.42233V11.0772Z" fill="#FF0000"/>
</svg>
