<svg width="12" height="12" viewBox="0 0 12 12" fill="none" xmlns="http://www.w3.org/2000/svg">
<g clip-path="url(#clip0_2_271)">
<path d="M6.5 10C7.1628 9.99922 7.79822 9.73558 8.26689 9.26691C8.73556 8.79824 8.9992 8.16281 9 7.50001V3.12151C9.00077 2.85869 8.94938 2.59833 8.84879 2.35552C8.7482 2.11271 8.60041 1.89228 8.414 1.70701L7.293 0.586009C7.10773 0.399596 6.8873 0.25181 6.64449 0.151219C6.40168 0.0506275 6.14132 -0.000768976 5.8785 8.6948e-06H3.5C2.8372 0.000802624 2.20178 0.26445 1.73311 0.733119C1.26444 1.20179 1.00079 1.83721 1 2.50001V7.50001C1.00079 8.16281 1.26444 8.79824 1.73311 9.26691C2.20178 9.73558 2.8372 9.99922 3.5 10H6.5ZM2 7.50001V2.50001C2 2.10219 2.15803 1.72065 2.43934 1.43935C2.72064 1.15804 3.10217 1.00001 3.5 1.00001C3.5 1.00001 5.9595 1.00701 6 1.01201V2.00001C6 2.26523 6.10536 2.51958 6.29289 2.70712C6.48043 2.89465 6.73478 3.00001 7 3.00001H7.988C7.993 3.04051 8 7.50001 8 7.50001C8 7.89784 7.84196 8.27937 7.56066 8.56068C7.27935 8.84198 6.89782 9.00002 6.5 9.00002H3.5C3.10217 9.00002 2.72064 8.84198 2.43934 8.56068C2.15803 8.27937 2 7.89784 2 7.50001ZM11 4.00001V9.50002C10.9992 10.1628 10.7356 10.7982 10.2669 11.2669C9.79822 11.7356 9.1628 11.9992 8.5 12H4C3.86739 12 3.74021 11.9473 3.64645 11.8536C3.55268 11.7598 3.5 11.6326 3.5 11.5C3.5 11.3674 3.55268 11.2402 3.64645 11.1465C3.74021 11.0527 3.86739 11 4 11H8.5C8.89782 11 9.27935 10.842 9.56066 10.5607C9.84196 10.2794 10 9.89784 10 9.50002V4.00001C10 3.8674 10.0527 3.74023 10.1464 3.64646C10.2402 3.55269 10.3674 3.50001 10.5 3.50001C10.6326 3.50001 10.7598 3.55269 10.8535 3.64646C10.9473 3.74023 11 3.8674 11 4.00001Z" fill="black"/>
</g>
<defs>
<clipPath id="clip0_2_271">
<rect width="12" height="12" fill="white"/>
</clipPath>
</defs>
</svg>
