<svg width="28" height="28" viewBox="0 0 28 28" fill="none" xmlns="http://www.w3.org/2000/svg">
<path d="M25.8967 14.2763C26.2178 14.2395 26.5318 14.3879 26.7041 14.6579C26.8764 14.9279 26.8764 15.2716 26.7041 15.5415C26.5318 15.8115 26.2178 15.9599 25.8967 15.9232H24.7099V19.0289C24.7128 20.4789 24.1314 21.8706 23.0938 22.8969C22.0561 23.9232 20.6475 24.5 19.1786 24.5H18.2716C17.8078 24.5 17.4319 24.1289 17.4319 23.6711C17.4319 23.2132 17.8078 22.8421 18.2716 22.8421H19.1786C21.2945 22.8179 22.9969 21.1178 22.9967 19.0289V15.9232H19.8504V17.1611C19.8504 17.8499 19.5732 18.5106 19.0797 18.9977C18.5862 19.4848 17.917 19.7584 17.2191 19.7584H10.8145C9.36124 19.7584 8.18318 18.5955 8.18318 17.1611V15.9232H5.08162V19.0289C5.08162 21.1349 6.81112 22.8421 8.94457 22.8421H9.90751C10.3713 22.8421 10.7473 23.2132 10.7473 23.6711C10.7473 24.1289 10.3713 24.5 9.90751 24.5H9.00055C5.93033 24.5002 3.43278 22.0594 3.40208 19.0289V15.9232H2.10323C1.78214 15.9599 1.46815 15.8115 1.29587 15.5415C1.12359 15.2716 1.12359 14.9279 1.29587 14.6579C1.46815 14.3879 1.78214 14.2395 2.10323 14.2763H25.8967ZM17.2079 8.24158C17.9058 8.24158 18.5751 8.51523 19.0685 9.00233C19.562 9.48943 19.8392 10.1501 19.8392 10.8389V12.2647C19.8424 12.3477 19.8104 12.4283 19.7509 12.487C19.6914 12.5457 19.6098 12.5773 19.5257 12.5742H8.49669C8.41261 12.5773 8.33101 12.5457 8.27151 12.487C8.21201 12.4283 8.18 12.3477 8.18318 12.2647V10.8389C8.18318 9.40446 9.36124 8.24158 10.8145 8.24158H17.2079ZM19.1786 3.5C22.2311 3.55425 24.6768 6.01264 24.6763 9.02632V10.2089C24.6763 10.6668 24.3003 11.0379 23.8365 11.0379C23.3727 11.0379 22.9967 10.6668 22.9967 10.2089V9.02632C23.0117 8.01308 22.6174 7.03565 21.9011 6.30983C21.1847 5.58402 20.2051 5.16954 19.1786 5.15789H18.2716C17.8078 5.15789 17.4319 4.78676 17.4319 4.32895C17.4319 3.87113 17.8078 3.5 18.2716 3.5H19.1786ZM9.85152 3.5C10.3128 3.50595 10.6853 3.87362 10.6913 4.32895C10.6853 4.78427 10.3128 5.15194 9.85152 5.15789H8.94457C7.91028 5.15779 6.91914 5.56711 6.19307 6.29421C5.46699 7.02131 5.06663 8.00546 5.08162 9.02632V10.2089C5.07559 10.6643 4.70312 11.0319 4.24185 11.0379H4.23065L4.11784 11.029C3.71228 10.9697 3.40208 10.6247 3.40208 10.2089V9.02632C3.40193 5.99567 5.8745 3.53031 8.94457 3.5H9.85152Z" fill="white"/>
</svg>
