<svg width="18" height="18" viewBox="0 0 18 18" fill="none" xmlns="http://www.w3.org/2000/svg">
<path d="M17.7803 16.7197L13.3035 12.243C14.5235 10.7509 15.1233 8.84706 14.9789 6.92516C14.8345 5.00326 13.9569 3.21039 12.5277 1.91738C11.0985 0.624372 9.22694 -0.0698418 7.30023 -0.0216679C5.37352 0.026506 3.53903 0.813382 2.17621 2.1762C0.81339 3.53902 0.0265136 5.37351 -0.0216603 7.30022C-0.0698341 9.22694 0.62438 11.0985 1.91739 12.5277C3.2104 13.9569 5.00327 14.8345 6.92517 14.9789C8.84707 15.1233 10.7509 14.5235 12.243 13.3035L16.7198 17.7802C16.8612 17.9169 17.0507 17.9925 17.2473 17.9908C17.444 17.989 17.6321 17.9102 17.7711 17.7711C17.9102 17.6321 17.9891 17.4439 17.9908 17.2473C17.9925 17.0507 17.9169 16.8612 17.7803 16.7197ZM7.5 13.5C6.31331 13.5 5.15327 13.1481 4.16658 12.4888C3.17988 11.8295 2.41085 10.8925 1.95672 9.79609C1.50259 8.69974 1.38377 7.49334 1.61529 6.32945C1.8468 5.16556 2.41824 4.09647 3.25736 3.25735C4.09647 2.41823 5.16557 1.84679 6.32946 1.61528C7.49334 1.38377 8.69974 1.50259 9.7961 1.95671C10.8925 2.41084 11.8295 3.17987 12.4888 4.16657C13.1481 5.15326 13.5 6.3133 13.5 7.49999C13.4982 9.09074 12.8655 10.6158 11.7407 11.7407C10.6158 12.8655 9.09075 13.4982 7.5 13.5Z" fill="#040415"/>
</svg>
